<?xml version="1.0" encoding="UTF-8"?>
<svg version="1.1" xmlns="http://www.w3.org/2000/svg" width="128" height="128">
<path d="M0 0 C13.46763589 10.24205396 23.01552391 24.12179598 26 41 C26.86685498 53.55923403 27.33861085 66.3750959 22 78 C21.50242187 79.093125 21.00484375 80.18625 20.4921875 81.3125 C12.57543686 97.21964547 -0.52337036 109.07505147 -17.41772461 114.82250977 C-24.28209913 116.89183996 -30.66368818 117.51026438 -37.8125 117.4375 C-38.86203857 117.42992676 -39.91157715 117.42235352 -40.99291992 117.41455078 C-59.9547761 117.01356687 -73.98126556 109.32460779 -87 96 C-97.89515241 84.01759745 -102.58366065 69.09465035 -102.4375 53.1875 C-102.42992676 52.03693115 -102.42235352 50.8863623 -102.41455078 49.70092773 C-102.25425369 41.45030768 -101.53188 34.55091587 -98 27 C-97.59910156 26.07960937 -97.19820313 25.15921875 -96.78515625 24.2109375 C-89.29050293 8.7871582 -75.74522484 -1.87685701 -60 -8 C-59.21882813 -8.32097656 -58.43765625 -8.64195313 -57.6328125 -8.97265625 C-38.55704108 -15.52423909 -16.39247589 -10.84736676 0 0 Z " fill="#171718" transform="translate(102,11)"/>
<path d="M0 0 C0 6.27 0 12.54 0 19 C2.97 19 5.94 19 9 19 C10.68425264 19.16769679 12.36592157 19.37609872 14.03515625 19.65625 C14.86337891 19.79160156 15.69160156 19.92695312 16.54492188 20.06640625 C17.37572266 20.20949219 18.20652344 20.35257813 19.0625 20.5 C19.92810547 20.64308594 20.79371094 20.78617188 21.68554688 20.93359375 C23.7914397 21.28263676 25.89588495 21.64039539 28 22 C28.12109311 29.07721931 27.85373239 35.97195301 27 43 C24.69 43 22.38 43 20 43 C19.49564306 41.0636296 18.99666126 39.12585854 18.5 37.1875 C18.2215625 36.10855469 17.943125 35.02960937 17.65625 33.91796875 C17 31 17 31 17 28 C9.61468368 25.31443043 0.98067705 24.27291698 -6.375 27.5625 C-13.56278253 31.79148639 -17.64230397 38.63456129 -20.0703125 46.44140625 C-21.40732841 51.92581034 -21.21630345 57.38834935 -21.125 63 C-21.11597656 64.06089844 -21.10695312 65.12179688 -21.09765625 66.21484375 C-21.07427651 68.80999468 -21.03841241 71.40502805 -21 74 C-17.37 73.01 -13.74 72.02 -10 71 C-9.67 69.35 -9.34 67.7 -9 66 C-8.04605164 63.97762948 -7.05464649 61.9717304 -6 60 C-3.69 60.33 -1.38 60.66 1 61 C0.34 65.95 -0.32 70.9 -1 76 C-13.5 80 -13.5 80 -18 80 C-15.00007997 86.95981448 -11.58743321 91.06524469 -5.2109375 95.14453125 C-2.13194708 96.33587207 0.58203895 96.30187754 3.875 96.3125 C5.66550781 96.33763672 5.66550781 96.33763672 7.4921875 96.36328125 C11.40721735 95.95782716 13.71945458 95.16515998 17 93 C18.75455028 90.56789044 18.75455028 90.56789044 19.875 87.8125 C20.28492187 86.91144531 20.69484375 86.01039062 21.1171875 85.08203125 C21.40851563 84.39496094 21.69984375 83.70789063 22 83 C24.31 83 26.62 83 29 83 C28.54775239 88.91492272 27.8417395 94.35199888 26 100 C22.66666667 100.66666667 19.33333333 101.33333333 16 102 C15.23300781 102.18046875 14.46601562 102.3609375 13.67578125 102.546875 C2.0779875 104.51088095 -9.38162009 103.71670856 -19.4921875 97.45703125 C-25.55699803 93.11224076 -29.63315274 88.10054177 -32 81 C-34.48983812 79.99820938 -34.48983812 79.99820938 -37.5 79.25 C-46.63571617 76.37474491 -52.76835335 71.48954733 -57.78515625 63.33203125 C-63.74967203 51.88246237 -64.89622795 37.66339422 -61.875 25.1875 C-58.38780987 14.30617525 -52.08316834 6.47186204 -42.45703125 0.39453125 C-29.45872346 -6.15045589 -13.48584889 -3.85309968 0 0 Z " fill="#F14001" transform="translate(81,13)"/>
<path d="M0 0 C0.6811084 -0.00644531 1.3622168 -0.01289063 2.06396484 -0.01953125 C6.67167323 0.09709121 10.06138902 0.88675753 13.875 3.5 C14.8984375 5.83984375 14.8984375 5.83984375 15.25 8.4375 C15.44722656 9.71947266 15.44722656 9.71947266 15.6484375 11.02734375 C15.875 13.5 15.875 13.5 15.875 17.5 C16.535 17.83 17.195 18.16 17.875 18.5 C17.26914063 18.68433594 16.66328125 18.86867188 16.0390625 19.05859375 C6.36389396 22.40769055 -0.96589401 28.66900864 -6.1875 37.48046875 C-10.8921266 47.61501856 -11.74609142 58.56858621 -10.125 69.5 C-16.83388022 66.3445521 -20.54267089 61.29975744 -23.125 54.5 C-25.13727569 47.9672907 -25.45979342 41.93786981 -25.4375 35.125 C-25.45361328 34.14789063 -25.46972656 33.17078125 -25.48632812 32.1640625 C-25.49317254 21.87005557 -23.41433081 13.05744413 -16.125 5.5 C-11.36923503 0.74423503 -6.56895808 0.05978574 0 0 Z " fill="#181818" transform="translate(57.125,15.5)"/>
<path d="M0 0 C0.33 0 0.66 0 1 0 C1 2.64 1 5.28 1 8 C2.27746094 7.9690625 3.55492187 7.938125 4.87109375 7.90625 C10.04503278 7.90625 14.97372346 8.62357766 20.0625 9.5 C20.92810547 9.64308594 21.79371094 9.78617188 22.68554688 9.93359375 C24.7914397 10.28263676 26.89588495 10.64039539 29 11 C29.12109311 18.07721931 28.85373239 24.97195301 28 32 C25.69 32 23.38 32 21 32 C20.49564306 30.0636296 19.99666126 28.12585854 19.5 26.1875 C19.2215625 25.10855469 18.943125 24.02960937 18.65625 22.91796875 C18 20 18 20 18 17 C10.61468368 14.31443043 1.98067705 13.27291698 -5.375 16.5625 C-12.56278253 20.79148639 -16.64230397 27.63456129 -19.0703125 35.44140625 C-20.40732841 40.92581034 -20.21630345 46.38834935 -20.125 52 C-20.11597656 53.06089844 -20.10695313 54.12179688 -20.09765625 55.21484375 C-20.07427524 57.81013638 -20.04150556 60.40494465 -20 63 C-21.79158489 63.02696365 -23.58328473 63.04637917 -25.375 63.0625 C-26.37273438 63.07410156 -27.37046875 63.08570313 -28.3984375 63.09765625 C-31 63 -31 63 -33 62 C-36.44514388 50.73492635 -34.60213973 39.24871123 -29.875 28.625 C-24.96750867 19.82081406 -17.50314001 13.36031031 -8 10 C-5.27409016 9.41240517 -2.79603221 9.15533512 0 9 C0 6.03 0 3.06 0 0 Z " fill="#942701" transform="translate(80,24)"/>
<path d="M0 0 C4.62 0 9.24 0 14 0 C14.515625 1.19625 15.03125 2.3925 15.5625 3.625 C18.3899195 9.29996299 23.04163246 13.6945539 29 16 C32.30238851 16.35496078 32.30238851 16.35496078 35.875 16.3125 C37.66550781 16.33763672 37.66550781 16.33763672 39.4921875 16.36328125 C43.40721735 15.95782716 45.71945458 15.16515998 49 13 C50.75455028 10.56789044 50.75455028 10.56789044 51.875 7.8125 C52.28492188 6.91144531 52.69484375 6.01039062 53.1171875 5.08203125 C53.40851563 4.39496094 53.69984375 3.70789063 54 3 C56.31 3 58.62 3 61 3 C60.54775239 8.91492272 59.8417395 14.35199888 58 20 C54.66666667 20.66666667 51.33333333 21.33333333 48 22 C46.84951172 22.27070312 46.84951172 22.27070312 45.67578125 22.546875 C34.0779875 24.51088095 22.61837991 23.71670856 12.5078125 17.45703125 C6.07399133 12.84788396 1.92887382 7.7154953 0 0 Z " fill="#942701" transform="translate(49,93)"/>
<path d="M0 0 C2.9375 0.375 2.9375 0.375 6 1 C6.33 1.66 6.66 2.32 7 3 C6.01 3 5.02 3 4 3 C6.35438733 4.42944945 7.48032433 5.08661261 10.25 4.625 C10.8275 4.41875 11.405 4.2125 12 4 C12.78395368 7.60355181 13.25266314 11.13872012 13.5625 14.8125 C13.64628906 15.78832031 13.73007812 16.76414062 13.81640625 17.76953125 C13.87699219 18.50558594 13.93757813 19.24164063 14 20 C7.21901216 16.81063708 3.73599228 11.78526085 1 5 C0.25 2 0.25 2 0 0 Z " fill="#1D1715" transform="translate(33,65)"/>
<path d="M0 0 C2.54232342 -0.08152344 5.08199202 -0.14073716 7.625 -0.1875 C8.33785156 -0.21263672 9.05070312 -0.23777344 9.78515625 -0.26367188 C14.53937019 -0.32909684 18.04992124 0.06152677 22 3 C23.0234375 6.13671875 23.0234375 6.13671875 23.375 9.6875 C23.57222656 11.45673828 23.57222656 11.45673828 23.7734375 13.26171875 C23.84820312 14.16535156 23.92296875 15.06898437 24 16 C22.0625 15.1875 22.0625 15.1875 20 14 C19.67 13.01 19.34 12.02 19 11 C13.41871485 6.2323874 6.85071767 3.43136118 0 1 C0 0.67 0 0.34 0 0 Z " fill="#25211F" transform="translate(49,16)"/>
<path d="M0 0 C2.875 2.0625 2.875 2.0625 5 4 C1.77482108 6.05061678 -1.3439728 7.84853715 -5 9 C-8.07459872 8.22729768 -9.47440243 7.03145892 -12 5 C-7.9786743 -0.22772342 -6.61233436 -1.68549699 0 0 Z " fill="#212120" transform="translate(39,8)"/>
<path d="M0 0 C2.9375 0.375 2.9375 0.375 6 1 C6.33 1.66 6.66 2.32 7 3 C6.01 3 5.02 3 4 3 C6.35438733 4.42944945 7.48032433 5.08661261 10.25 4.625 C10.8275 4.41875 11.405 4.2125 12 4 C13 8.75 13 8.75 13 11 C7.25 9.25 7.25 9.25 5 7 C4.13375 6.175 3.2675 5.35 2.375 4.5 C0 2 0 2 0 0 Z " fill="#1D1E1E" transform="translate(33,65)"/>
<path d="M0 0 C13.59584296 -0.60277136 13.59584296 -0.60277136 19 3 C19.9375 6.1875 19.9375 6.1875 20 9 C19.34 8.67 18.68 8.34 18 8 C18 7.34 18 6.68 18 6 C17.113125 5.896875 16.22625 5.79375 15.3125 5.6875 C12 5 12 5 9.5625 3.5 C6.39540123 1.64608853 3.62087762 1.354988 0 1 C0 0.67 0 0.34 0 0 Z " fill="#392119" transform="translate(79,38)"/>
<path d="M0 0 C4.23429756 1.31061591 8.07407404 2.94356259 12 5 C11.01 5.495 11.01 5.495 10 6 C10 6.66 10 7.32 10 8 C5.38486888 6.68139111 1.90102388 4.78644563 -2 2 C-1.34 1.34 -0.68 0.68 0 0 Z " fill="#222424" transform="translate(52,25)"/>
<path d="M0 0 C5.27749285 0.53851968 9.25645564 1.77343836 14 4 C13.67 5.32 13.34 6.64 13 8 C13 7.34 13 6.68 13 6 C12.31292969 5.81824219 11.62585937 5.63648438 10.91796875 5.44921875 C10.01691406 5.19785156 9.11585937 4.94648437 8.1875 4.6875 C7.29417969 4.44386719 6.40085937 4.20023438 5.48046875 3.94921875 C2.94752262 2.9799181 1.7283504 2.04990396 0 0 Z " fill="#211F1F" transform="translate(5,36)"/>
<path d="M0 0 C5.66442374 0.36504064 10.00703705 1.0554321 15 4 C11.21180727 5.43410153 8.93478721 4.51009497 5.25 3.0625 C3.77273438 2.49208984 3.77273438 2.49208984 2.265625 1.91015625 C1.51796875 1.60980469 0.7703125 1.30945312 0 1 C0 0.67 0 0.34 0 0 Z " fill="#292A2A" transform="translate(3,41)"/>
<path d="M0 0 C2.9375 0.375 2.9375 0.375 6 1 C6.33 1.66 6.66 2.32 7 3 C6.01 3 5.02 3 4 3 C5.65 3.99 7.3 4.98 9 6 C8.01 6.495 8.01 6.495 7 7 C3.9375 5.8125 3.9375 5.8125 1 4 C0.125 1.8125 0.125 1.8125 0 0 Z " fill="#383432" transform="translate(33,65)"/>
<path d="M0 0 C0.928125 0.2784375 0.928125 0.2784375 1.875 0.5625 C4.04160178 1.23686176 4.04160178 1.23686176 6 0 C6.33 2.64 6.66 5.28 7 8 C5.0625 7.1875 5.0625 7.1875 3 6 C2.67 5.01 2.34 4.02 2 3 C1.34 2.01 0.68 1.02 0 0 Z " fill="#43302A" transform="translate(66,24)"/>
<path d="M0 0 C4.3890815 0.51035831 7.33708062 1.52214277 11 4 C9.4375 4.75 9.4375 4.75 7 5 C4.49713591 3.86915563 2.32992278 2.47860484 0 1 C0 0.67 0 0.34 0 0 Z " fill="#2A2C2C" transform="translate(86,39)"/>
<path d="M0 0 C3.465 1.98 3.465 1.98 7 4 C6.67 4.99 6.34 5.98 6 7 C3.69 5.35 1.38 3.7 -1 2 C-0.67 1.34 -0.34 0.68 0 0 Z " fill="#222325" transform="translate(121,69)"/>
</svg>
